<svg width="180" height="90" viewBox="0 0 180 90" fill="none" xmlns="http://www.w3.org/2000/svg">
<path fill-rule="evenodd" clip-rule="evenodd" d="M70.6717 40.0685C71.7805 40.5389 72.9817 40.7741 74.2753 40.7741C75.1321 40.7741 75.9049 40.7027 76.5937 40.5599C77.2825 40.4171 77.9167 40.2071 78.4963 39.9299C79.0759 39.6527 79.6093 39.3209 80.0965 38.9345C80.5837 38.5481 81.0541 38.1113 81.5077 37.6241L79.0381 35.1293C78.3493 35.7677 77.6563 36.2717 76.9591 36.6413C76.2619 37.0109 75.4093 37.1957 74.4013 37.1957C73.6453 37.1957 72.9523 37.0487 72.3223 36.7547C71.6923 36.4607 71.1547 36.0617 70.7095 35.5577C70.2643 35.0537 69.9157 34.4657 69.6637 33.7937C69.4117 33.1217 69.2857 32.4077 69.2857 31.6517V31.6013C69.2857 30.8453 69.4117 30.1355 69.6637 29.4719C69.9157 28.8083 70.2685 28.2245 70.7221 27.7205C71.1757 27.2165 71.7175 26.8217 72.3475 26.5361C72.9775 26.2505 73.6621 26.1077 74.4013 26.1077C75.2917 26.1077 76.0939 26.2841 76.8079 26.6369C77.5219 26.9897 78.2233 27.4769 78.9121 28.0985L81.3817 25.2509C80.9785 24.8477 80.5417 24.4781 80.0713 24.1421C79.6009 23.8061 79.0885 23.5205 78.5341 23.2853C77.9797 23.0501 77.3623 22.8653 76.6819 22.7309C76.0015 22.5965 75.2497 22.5293 74.4265 22.5293C73.0657 22.5293 71.8225 22.7687 70.6969 23.2475C69.5713 23.7263 68.6053 24.3815 67.7989 25.2131C66.9925 26.0447 66.3625 27.0107 65.9089 28.1111C65.4553 29.2115 65.2285 30.3917 65.2285 31.6517V31.7021C65.2285 32.9621 65.4553 34.1465 65.9089 35.2553C66.3625 36.3641 66.9925 37.3259 67.7989 38.1407C68.6053 38.9555 69.5629 39.5981 70.6717 40.0685ZM52.15 22.7055H55.7284L63.2884 40.4715H59.2312L57.6184 36.5151H50.1592L48.5464 40.4715H44.59L52.15 22.7055ZM32.4308 39.9424C33.3632 40.4632 34.5182 40.7236 35.8958 40.7236C36.8534 40.7236 37.7228 40.585 38.504 40.3078C39.2852 40.0306 39.9446 39.6232 40.4822 39.0856C41.0198 38.548 41.4314 37.8928 41.717 37.12C42.0026 36.3472 42.1454 35.4316 42.1454 34.3732V22.8316H38.1638V34.1968C38.1638 35.2216 37.9538 35.965 37.5338 36.427C37.1138 36.889 36.5342 37.12 35.795 37.12C35.1734 37.12 34.6064 36.9646 34.094 36.6538C33.5816 36.343 33.0734 35.9104 32.5694 35.356L30.125 38.0776C30.7298 38.8 31.4984 39.4216 32.4308 39.9424ZM53.8893 27.3677L56.2329 33.0881H51.5457L53.8893 27.3677ZM84.7842 22.8316H88.665V40.4716H84.7842V22.8316ZM96.6524 22.8316H93.074V40.4716H96.9044V29.2576L105.447 40.4716H108.748V22.8316H104.918V33.6928L96.6524 22.8316ZM119.863 36.9689C120.653 36.9689 121.375 36.8429 122.03 36.5909C122.685 36.3389 123.244 35.9777 123.706 35.5073C124.168 35.0369 124.529 34.4825 124.79 33.8441C125.05 33.2057 125.18 32.4917 125.18 31.7021V31.6517C125.18 30.8789 125.05 30.1649 124.79 29.5097C124.529 28.8545 124.168 28.2917 123.706 27.8213C123.244 27.3509 122.685 26.9855 122.03 26.7251C121.375 26.4647 120.653 26.3345 119.863 26.3345H116.864V36.9689H119.863ZM119.863 22.8316H112.983V40.4716H119.863C121.24 40.4716 122.504 40.2448 123.655 39.7912C124.806 39.3376 125.797 38.716 126.629 37.9264C127.46 37.1368 128.103 36.2044 128.557 35.1292C129.01 34.054 129.237 32.8948 129.237 31.6516V31.6012C129.237 30.358 129.01 29.203 128.557 28.1362C128.103 27.0694 127.46 26.1412 126.629 25.3516C125.797 24.562 124.806 23.9446 123.655 23.4994C122.504 23.0542 121.24 22.8316 119.863 22.8316ZM142.819 33.0881L140.476 27.3677L138.132 33.0881H142.819ZM142.315 22.7055H138.736L131.176 40.4715H135.133L136.746 36.5151H144.205L145.818 40.4715H149.875L142.315 22.7055ZM45.9515 60.0881L43.6079 54.3677L41.2643 60.0881H45.9515ZM45.447 49.7055H41.8686L34.3086 67.4715H38.265L39.8778 63.5151H47.337L48.9498 67.4715H53.007L45.447 49.7055ZM63.54 58.3997C64.4976 58.3997 65.2326 58.1729 65.745 57.7193C66.2574 57.2657 66.5136 56.6609 66.5136 55.9049V55.8545C66.5136 55.0145 66.2448 54.3845 65.7072 53.9645C65.1696 53.5445 64.422 53.3345 63.4644 53.3345H59.6088V58.3997H63.54ZM63.7915 49.8316H55.7275V67.4716H59.6083V61.8268H62.6575L66.4375 67.4716H70.9735L66.6643 61.1716C67.7899 60.7516 68.7013 60.0922 69.3985 59.1934C70.0957 58.2946 70.4443 57.1312 70.4443 55.7032V55.6528C70.4443 53.9728 69.9403 52.6288 68.9323 51.6208C67.7395 50.428 66.026 49.8316 63.7915 49.8316ZM80.8273 63.9689C81.6169 63.9689 82.3393 63.8429 82.9945 63.5909C83.6497 63.3389 84.2083 62.9777 84.6703 62.5073C85.1323 62.0369 85.4935 61.4825 85.7539 60.8441C86.0143 60.2057 86.1445 59.4917 86.1445 58.7021V58.6517C86.1445 57.8789 86.0143 57.1649 85.7539 56.5097C85.4935 55.8545 85.1323 55.2917 84.6703 54.8213C84.2083 54.3509 83.6497 53.9855 82.9945 53.7251C82.3393 53.4647 81.6169 53.3345 80.8273 53.3345H77.8285V63.9689H80.8273ZM80.8269 49.8316H73.9473V67.4716H80.8269C82.2045 67.4716 83.4687 67.2448 84.6195 66.7912C85.7703 66.3376 86.7615 65.716 87.5931 64.9264C88.4247 64.1368 89.0673 63.2044 89.5209 62.1292C89.9745 61.054 90.2013 59.8948 90.2013 58.6516V58.6012C90.2013 57.358 89.9745 56.203 89.5209 55.1362C89.0673 54.0694 88.4247 53.1412 87.5931 52.3516C86.7615 51.562 85.7703 50.9446 84.6195 50.4994C83.4687 50.0542 82.2045 49.8316 80.8269 49.8316ZM93.6541 49.8316H106.96V53.284H97.5097V56.8624H105.826V60.3148H97.5097V64.0192H107.086V67.4716H93.6541V49.8316ZM120.555 57.7193C120.043 58.1729 119.308 58.3997 118.35 58.3997H114.419V53.3345H118.275C119.232 53.3345 119.98 53.5445 120.518 53.9645C121.055 54.3845 121.324 55.0145 121.324 55.8545V55.9049C121.324 56.6609 121.068 57.2657 120.555 57.7193ZM110.538 49.8316H118.602C120.836 49.8316 122.55 50.428 123.743 51.6208C124.751 52.6288 125.255 53.9728 125.255 55.6528V55.7032C125.255 57.1312 124.906 58.2946 124.209 59.1934C123.512 60.0922 122.6 60.7516 121.475 61.1716L125.784 67.4716H121.248L117.468 61.8268H114.419V67.4716H110.538V49.8316ZM132.336 49.8316H128.758V67.4716H132.588V56.2576L141.131 67.4716H144.432V49.8316H140.602V60.6928L132.336 49.8316Z" fill="#8F908F"/>
</svg>
