<svg width="180" height="90" viewBox="0 0 180 90" fill="none" xmlns="http://www.w3.org/2000/svg">
<path d="M25.607 46.0967C27.3553 46.0967 28.7728 44.6826 28.7728 42.9386V33.5362H33.1285V42.9386C33.1285 44.6826 34.5461 46.0967 36.2942 46.0967C38.0424 46.0967 39.4598 44.6826 39.4598 42.9386V14.8572C39.4598 13.1132 38.0424 11.699 36.2942 11.699C34.5461 11.699 33.1285 13.1132 33.1285 14.8572V27.2211H28.7728V20.9348C28.7728 19.1908 27.3553 17.7767 25.607 17.7767C23.8589 17.7767 22.4414 19.1908 22.4414 20.9348V42.9386C22.4414 44.6826 23.8589 46.0967 25.607 46.0967Z" fill="#A3A3A3"/>
<path d="M46.9782 51.5107C48.7263 51.5107 50.1438 50.0966 50.1438 48.3527V29.2707C50.1438 27.5267 48.7263 26.1125 46.9782 26.1125C45.23 26.1125 43.8125 27.5267 43.8125 29.2707V48.3527C43.8125 50.0966 45.23 51.5107 46.9782 51.5107Z" fill="#A3A3A3"/>
<path d="M46.9782 24.9854C48.7263 24.9854 50.1438 23.5712 50.1438 21.8273V20.9353C50.1438 19.1914 48.7263 17.7783 46.9782 17.7783C45.23 17.7783 43.8125 19.1914 43.8125 20.9353V21.8273C43.8125 23.5712 45.23 24.9854 46.9782 24.9854Z" fill="#A3A3A3"/>
<path d="M60.8455 42.6664C59.2288 42.0034 57.3793 42.774 56.7148 44.3869C56.6629 44.5126 51.5231 56.9614 48.0677 62.7468C45.5493 66.9611 41.0222 71.9847 33.7474 71.9847C29.5876 71.9847 25.6808 70.361 22.7457 67.4146C19.8116 64.4671 18.1561 60.5223 18.084 56.3037C17.9622 49.1611 18.0829 29.4881 18.084 29.2904C18.0958 27.5464 16.687 26.1237 14.9388 26.113C14.9323 26.113 14.9258 26.113 14.9183 26.113C13.1798 26.113 11.7646 27.5131 11.7537 29.2506C11.7527 29.4494 11.6309 49.1955 11.7548 56.4123C11.8539 62.2675 14.1632 67.7563 18.2552 71.8656C22.3871 76.0143 27.889 78.2998 33.7474 78.2998C37.9836 78.2998 41.9119 77.1103 45.4244 74.7656C48.5512 72.6778 51.2699 69.7217 53.5049 65.9801C57.1983 59.7982 62.3523 47.3161 62.5699 46.7874C63.2346 45.1745 62.4621 43.3295 60.8455 42.6664Z" fill="#A3A3A3"/>
<path d="M151.925 55.8755C151.925 57.3331 150.876 58.1922 149.682 58.1922C148.489 58.1922 147.44 57.3331 147.44 55.8755C147.44 54.4182 148.489 53.5591 149.682 53.5591C150.876 53.5591 151.925 54.4182 151.925 55.8755ZM144.066 55.8755C144.066 59.4063 146.473 61.6582 149.682 61.6582C152.891 61.6582 155.297 59.4063 155.297 55.8755C155.297 52.345 152.891 50.093 149.682 50.093C146.473 50.093 144.066 52.345 144.066 55.8755Z" fill="#A3A3A3"/>
<path d="M72.6502 27.2326C72.6502 27.0928 72.5337 26.9766 72.3934 26.9766H69.37C69.2276 26.9766 69.1133 27.0928 69.1133 27.2326V42.1715C69.1133 42.3114 69.2276 42.4277 69.37 42.4277H72.3934C72.5337 42.4277 72.6502 42.3114 72.6502 42.1715V37.0628C72.6502 35.4093 73.5436 34.5481 74.7153 34.5481C75.775 34.5481 76.6749 35.1208 76.6749 36.5783V42.1715C76.6749 42.3114 76.7914 42.4277 76.9317 42.4277H80.0003C80.1407 42.4277 80.2571 42.3114 80.2571 42.1715V35.3641C80.2571 32.6494 78.8134 31.1272 76.3813 31.1272C74.6787 31.1272 73.3365 31.9648 72.6502 33.0477V27.2326Z" fill="#A3A3A3"/>
<path d="M93.2548 31.6472C93.2548 31.5074 93.1382 31.3911 92.9979 31.3911H89.9508C89.8106 31.3911 89.6962 31.5074 89.6962 31.6472V36.7538C89.6962 38.4095 88.7143 39.2706 87.6093 39.2706C86.77 39.2706 85.9888 38.7625 85.9888 37.3072V31.6472C85.9888 31.5074 85.8744 31.3911 85.732 31.3911H82.6201C82.4777 31.3911 82.3633 31.5074 82.3633 31.6472V38.4547C82.3633 41.1694 83.7553 42.6914 86.0341 42.6914C87.6915 42.6914 89.1416 41.7657 89.8279 40.7044V42.1704C89.8279 42.3126 89.9443 42.4266 90.0846 42.4266H92.9979C93.1404 42.4266 93.2548 42.3126 93.2548 42.1704V31.6472Z" fill="#A3A3A3"/>
<path d="M126.659 50.614C126.659 50.4742 126.547 50.3579 126.407 50.3579H123.422C123.284 50.3579 123.17 50.4742 123.17 50.614V55.7206C123.17 57.3762 122.369 58.2373 121.286 58.2373C120.461 58.2373 119.855 57.7293 119.855 56.274V50.614C119.855 50.4742 119.743 50.3579 119.605 50.3579H116.553C116.415 50.3579 116.301 50.4742 116.301 50.614V57.4215C116.301 60.1362 117.667 61.6582 119.898 61.6582C121.523 61.6582 122.628 60.7325 123.301 59.6712V61.1372C123.301 61.2793 123.413 61.3934 123.552 61.3934H126.409C126.547 61.3934 126.659 61.2793 126.659 61.1372V50.614Z" fill="#A3A3A3"/>
<path d="M110.697 42.1714C110.697 42.3114 110.812 42.4277 110.954 42.4277H113.978C114.12 42.4277 114.234 42.3114 114.234 42.1714V35.4977C114.234 32.6945 112.197 31.1273 109.921 31.1273C108.239 31.1273 106.699 31.9884 106.146 33.1144C105.527 31.7452 104.107 31.1273 102.626 31.1273C100.835 31.1273 99.5816 32.01 98.9406 33.0476V31.6483C98.9406 31.5062 98.8263 31.3921 98.6838 31.3921H95.749C95.6065 31.3921 95.4922 31.5062 95.4922 31.6483V42.1714C95.4922 42.3114 95.6065 42.4277 95.749 42.4277H98.7723C98.9126 42.4277 99.029 42.3114 99.029 42.1714V37.065C99.029 35.5407 99.7735 34.5482 101.099 34.5482C102.182 34.5482 103.095 35.2328 103.095 36.6235V42.1714C103.095 42.3114 103.209 42.4277 103.352 42.4277H106.375C106.515 42.4277 106.632 42.3114 106.632 42.1714V37.065C106.632 35.5407 107.376 34.5482 108.701 34.5482C109.785 34.5482 110.697 35.2328 110.697 36.6235V42.1714Z" fill="#A3A3A3"/>
<path d="M122.825 37.6075V37.8229C122.825 39.0371 121.895 39.8939 120.583 39.8939C119.701 39.8939 119.224 39.5129 119.224 38.8929C119.224 38.3461 119.653 37.9886 120.415 37.894L122.825 37.6075ZM116.157 33.2632C116.086 33.3729 116.108 33.5216 116.213 33.6033L118.017 35.0156C118.127 35.1038 118.289 35.0844 118.378 34.9725C118.969 34.2665 120.095 34.1007 120.926 34.1007C122.031 34.1007 122.825 34.5161 122.825 35.0112V35.0995C122.825 35.2975 122.694 35.4074 122.34 35.4526L119.355 35.7174C117.299 35.8939 115.84 37.2179 115.84 39.205C115.84 41.3019 117.476 42.6475 119.554 42.6475C121.367 42.6475 122.34 41.7196 122.825 40.9704V42.1718C122.825 42.3117 122.942 42.4279 123.082 42.4279H126.106C126.248 42.4279 126.362 42.3117 126.362 42.1718V35.8487C126.362 32.516 124.595 31.1253 121.278 31.1253C119.096 31.1253 117.117 31.7539 116.157 33.2632Z" fill="#A3A3A3"/>
<path d="M135.789 42.1716C135.789 42.3116 135.906 42.4277 136.046 42.4277H139.115C139.255 42.4277 139.371 42.3116 139.371 42.1716V35.3643C139.371 32.6495 138.031 31.1274 135.599 31.1274C133.874 31.1274 132.642 32.0532 131.956 33.0477V31.6485C131.956 31.5063 131.84 31.3922 131.7 31.3922H128.765C128.622 31.3922 128.508 31.5063 128.508 31.6485V42.1716C128.508 42.3116 128.622 42.4277 128.765 42.4277H131.788C131.928 42.4277 132.045 42.3116 132.045 42.1716V37.0651C132.045 35.4094 132.867 34.5484 134.038 34.5484C135.1 34.5484 135.789 35.1211 135.789 36.5784V42.1716Z" fill="#A3A3A3"/>
<path d="M163.868 61.1364C163.868 61.2763 163.982 61.3926 164.122 61.3926H167.159C167.3 61.3926 167.413 61.2785 167.413 61.1364V54.329C167.413 51.6143 166.151 50.0923 163.743 50.0923C162.036 50.0923 160.974 51.02 160.297 52.0126V50.6133C160.297 50.4734 160.182 50.3571 160.042 50.3571H157.135C156.996 50.3571 156.883 50.4734 156.883 50.6133V61.1364C156.883 61.2785 156.996 61.3926 157.135 61.3926H160.13C160.27 61.3926 160.385 61.2785 160.385 61.1364V56.0299C160.385 54.3742 161.099 53.5131 162.26 53.5131C163.311 53.5131 163.868 54.0878 163.868 55.5433V61.1364Z" fill="#A3A3A3"/>
<path d="M94.9113 61.1364C94.9113 61.2763 95.0255 61.3926 95.1659 61.3926H98.2022C98.3425 61.3926 98.4568 61.2785 98.4568 61.1364V54.329C98.4568 51.6143 97.1944 50.0923 94.7861 50.0923C93.0791 50.0923 92.0175 51.02 91.3398 52.0126V50.6133C91.3398 50.4734 91.2254 50.3571 91.0851 50.3571H88.1783C88.0402 50.3571 87.9258 50.4734 87.9258 50.6133V61.1364C87.9258 61.2785 88.0402 61.3926 88.1783 61.3926H91.1735C91.3138 61.3926 91.4283 61.2785 91.4283 61.1364V56.0299C91.4283 54.3742 92.1425 53.5131 93.3035 53.5131C94.3545 53.5131 94.9113 54.0878 94.9113 55.5433V61.1364Z" fill="#A3A3A3"/>
<path d="M141.238 28.2359C141.238 29.4287 142.123 30.3114 143.316 30.3114C144.51 30.3114 145.395 29.4287 145.395 28.2359C145.395 27.0433 144.51 26.1607 143.316 26.1607C142.123 26.1607 141.238 27.0433 141.238 28.2359ZM145.086 31.6483C145.086 31.5084 144.97 31.3921 144.83 31.3921H141.804C141.663 31.3921 141.546 31.5084 141.546 31.6483V42.1715C141.546 42.3136 141.663 42.4277 141.804 42.4277H144.83C144.97 42.4277 145.086 42.3136 145.086 42.1715V31.6483Z" fill="#A3A3A3"/>
<path d="M82.1016 47.2018C82.1016 48.3945 82.9776 49.2773 84.1581 49.2773C85.3406 49.2773 86.2168 48.3945 86.2168 47.2018C86.2168 46.0091 85.3406 45.1264 84.1581 45.1264C82.9776 45.1264 82.1016 46.0091 82.1016 47.2018ZM85.9104 50.6141C85.9104 50.472 85.7959 50.3579 85.6557 50.3579H82.6626C82.5223 50.3579 82.408 50.4742 82.408 50.6141V61.1373C82.408 61.2793 82.5223 61.3936 82.6626 61.3936H85.6557C85.7959 61.3936 85.9104 61.2793 85.9104 61.1373V50.6141Z" fill="#A3A3A3"/>
<path d="M114.236 46.1995C114.236 46.0597 114.12 45.9434 113.979 45.9434H110.956C110.814 45.9434 110.699 46.0597 110.699 46.1995V61.1382C110.699 61.2782 110.814 61.3922 110.956 61.3922L113.979 61.3945C114.12 61.3945 114.236 61.2782 114.236 61.1382V46.1995Z" fill="#A3A3A3"/>
<path d="M138.672 47.2018C138.672 48.3945 139.548 49.2773 140.728 49.2773C141.911 49.2773 142.786 48.3945 142.786 47.2018C142.786 46.0091 141.911 45.1264 140.728 45.1264C139.548 45.1264 138.672 46.0091 138.672 47.2018ZM142.481 50.6141C142.481 50.472 142.366 50.3579 142.226 50.3579H139.232C139.092 50.3579 138.978 50.4742 138.978 50.6141V61.1373C138.978 61.2793 139.092 61.3936 139.232 61.3936H142.226C142.366 61.3936 142.481 61.2793 142.481 61.1373V50.6141Z" fill="#A3A3A3"/>
<path d="M154.544 42.2117C153.655 42.4228 152.747 42.5391 152.068 42.5391C149.967 42.5391 148.685 41.5014 148.685 38.8748V34.3063L147.041 34.3043C146.899 34.3043 146.785 34.1902 146.785 34.0481V31.6477C146.785 31.5078 146.899 31.3916 147.041 31.3916H148.685V28.6918C148.685 28.5497 148.8 28.4356 148.943 28.4356H151.966C152.106 28.4356 152.222 28.5497 152.222 28.6918V31.3916H154.64C154.782 31.3916 154.897 31.5078 154.897 31.6477V34.0481C154.897 34.1902 154.782 34.3043 154.64 34.3043L152.222 34.3063V38.145C152.222 38.7629 152.598 38.9394 153.24 38.9394C153.474 38.9394 153.759 38.9051 154.448 38.806C154.461 38.8038 154.473 38.8038 154.486 38.8038C154.626 38.8038 154.744 38.918 154.744 39.0599V41.962C154.744 42.0826 154.657 42.186 154.544 42.2117Z" fill="#A3A3A3"/>
<path d="M107.412 54.4224C106.94 53.9467 106.34 53.5591 105.507 53.5591C104.093 53.5591 103.157 54.5064 103.157 55.8757C103.157 57.2448 104.104 58.1943 105.507 58.1943C106.34 58.1943 106.933 57.8003 107.404 57.3267C107.449 57.2793 107.512 57.2513 107.581 57.2492C107.673 57.2469 107.753 57.2965 107.801 57.3697L109.322 59.7896C109.346 59.8283 109.361 59.8735 109.361 59.923C109.361 59.994 109.331 60.0586 109.286 60.106C108.368 61.0016 107.078 61.6582 105.444 61.6582C102.274 61.6582 99.7773 59.473 99.7773 55.8757C99.7773 52.2782 102.274 50.093 105.444 50.093C107.078 50.093 108.373 50.7432 109.29 51.6387C109.337 51.6861 109.368 51.7507 109.368 51.8218C109.368 51.8712 109.352 51.9186 109.327 51.9574L107.805 54.3794C107.76 54.4503 107.68 54.4978 107.589 54.4957C107.52 54.4957 107.458 54.4677 107.412 54.4224Z" fill="#A3A3A3"/>
<path d="M79.7014 61.031L77.8908 58.4088L77.8995 58.3938C79.205 56.4089 79.4317 54.495 79.5417 53.5734C79.5526 53.4681 79.5655 53.3754 79.5763 53.2936C79.5784 53.2786 79.5784 53.2634 79.5784 53.2484C79.5741 53.186 79.5461 53.13 79.4986 53.087C79.4533 53.046 79.3929 53.0245 79.3302 53.0288H76.8335C76.7278 53.0353 76.637 53.1171 76.6221 53.2248C76.6198 53.2334 76.5486 54.4303 76.022 55.6359L76.0048 55.6769L74.1769 53.0268L74.4963 52.8156C75.8387 51.7845 76.732 50.736 76.732 48.9642C76.732 47.9373 76.3716 46.9835 75.7177 46.2838C75.038 45.554 74.0777 45.1515 73.0117 45.1515C71.4881 45.1515 70.1781 45.92 69.5113 47.2053C68.7518 48.6735 68.9696 50.5208 70.0939 52.1504L70.1415 52.2171L70.1177 52.2322C68.4173 53.2355 67.5195 54.8329 67.5195 56.8479C67.5195 58.1139 67.921 59.2786 68.6524 60.1268C69.5006 61.1128 70.7631 61.6338 72.3016 61.6338C73.2749 61.6338 74.5611 61.5154 75.8667 60.5875L75.8861 60.5725L76.3889 61.3044C76.4342 61.3605 76.499 61.3928 76.5701 61.3928H79.5137C79.6388 61.3928 79.7425 61.2895 79.7425 61.1623C79.7425 61.115 79.7274 61.0698 79.7014 61.031ZM72.9729 48.1396C73.5684 48.1396 73.9697 48.5358 73.9697 49.1236C73.9697 49.9287 73.3526 50.3054 72.8067 50.6371C72.7484 50.6714 72.688 50.7081 72.6297 50.7447L72.6124 50.7554L72.5995 50.7383C72.5347 50.6607 71.9736 49.9481 71.9736 49.1925C71.9736 48.6134 72.4203 48.1396 72.9729 48.1396ZM74.136 58.0602C73.5879 58.5186 73.1131 58.7037 72.498 58.7037C71.4514 58.7037 70.5666 57.8124 70.5666 56.7575C70.5666 55.8727 70.981 55.1321 71.7644 54.6177L71.7859 54.6026L71.7988 54.6242C72.5735 55.7501 73.4022 56.9557 74.1403 58.0278L74.1532 58.0472L74.136 58.0602Z" fill="#A3A3A3"/>
<path d="M129.787 57.8971C130.523 58.2933 132.286 58.7239 133.132 58.6787C133.81 58.6421 134.038 58.3988 134.036 58.1556C134.033 57.7594 133.751 57.6495 131.671 57.0964C130.227 56.713 128.766 55.6561 128.766 53.7571C128.766 51.3503 130.374 50.093 133.254 50.093C134.922 50.093 136.201 50.5151 137.165 51.1285C137.235 51.1716 137.282 51.2533 137.282 51.3481C137.282 51.3955 137.271 51.4407 137.247 51.4794L136.101 53.5355C136.06 53.6108 135.981 53.6647 135.89 53.6689C135.844 53.6711 135.803 53.6604 135.767 53.641C135.031 53.2469 133.811 52.9993 132.963 53.0447C132.286 53.0833 132.061 53.3826 132.061 53.6236C132.061 53.8885 132.329 54.1469 134.427 54.6334C136.259 55.0532 137.331 56.0737 137.331 57.9725C137.331 60.3751 135.743 61.6582 132.719 61.6582C130.838 61.6582 129.286 61.2277 128.322 60.4376C128.261 60.3901 128.224 60.3105 128.227 60.2223C128.227 60.1749 128.24 60.1318 128.261 60.0954L129.431 57.9897C129.474 57.9122 129.556 57.8585 129.649 57.8562C129.701 57.8562 129.748 57.8714 129.787 57.8971Z" fill="#A3A3A3"/>
<path d="M158.255 46.8408C158.114 46.8408 157.997 46.7267 157.997 46.5847C157.997 46.548 158.006 46.5136 158.019 46.4835L160.538 40.7719L156.115 31.7578C156.101 31.7255 156.09 31.6868 156.09 31.6482C156.09 31.5059 156.206 31.3919 156.347 31.3919H159.819C159.923 31.3919 160.013 31.4522 160.052 31.5404L162.374 36.6449L164.631 31.5426C164.672 31.4522 164.761 31.3919 164.864 31.3919H168.043C168.183 31.3919 168.298 31.5059 168.298 31.6482C168.298 31.6847 168.291 31.719 168.276 31.7493L161.647 46.6879C161.606 46.7783 161.515 46.8408 161.411 46.8408H158.255Z" fill="#A3A3A3"/>
</svg>
