<svg width="180" height="90" viewBox="0 0 180 90" fill="none" xmlns="http://www.w3.org/2000/svg">
<path fill-rule="evenodd" clip-rule="evenodd" d="M8.22556 46.3653C9.96435 46.3653 11.3845 45.69 12.4871 44.3403L14.7546 46.6307C12.9555 48.6203 10.8368 49.6141 8.39643 49.6141C5.95409 49.6141 3.94393 48.8572 2.36596 47.3434C0.788987 45.8306 0 43.9206 0 41.6155C0 39.3084 0.804063 37.3837 2.4142 35.8404C4.02031 34.297 5.99027 33.5244 8.31703 33.5244C10.9162 33.5244 13.0912 34.4976 14.845 36.44L12.6459 38.8876C11.5283 37.5242 10.1372 36.843 8.47482 36.843C7.14611 36.843 6.00836 37.2696 5.06459 38.1229C4.11982 38.9761 3.64743 40.1252 3.64743 41.5712C3.64743 43.0182 4.09168 44.1791 4.98419 45.054C5.87569 45.9308 6.95615 46.3683 8.22456 46.3683L8.22556 46.3653ZM17.448 33.8812H20.9829V49.4352H17.448V33.8812ZM31.3648 49.4352V36.8853H35.8535V33.8812H23.3402V36.8853H27.8289V49.4352H31.3648ZM42.7004 49.4352V43.2944L37.2146 33.8812H41.046L44.4683 39.6672L47.8926 33.8812H51.722L46.2362 43.2944V49.4352H42.7004ZM67.4875 43.9047C67.8675 43.0593 68.0584 42.1176 68.0584 41.0835H68.0574C68.0574 40.0592 67.771 39.2512 67.1981 38.6575C66.6242 38.0638 65.8281 37.7669 64.813 37.7669C63.9316 37.7669 63.1546 38.0028 62.4812 38.4766C61.8078 38.9504 61.2852 39.612 60.9133 40.4623C60.5404 41.3116 60.3545 42.2454 60.3545 43.2638C60.3545 44.2724 60.649 45.0696 61.239 45.6554C61.8279 46.2423 62.623 46.5352 63.624 46.5352C64.4894 46.5352 65.2542 46.3072 65.9196 45.855C66.583 45.4018 67.1056 44.7521 67.4875 43.9047ZM66.2043 41.0068C66.2043 40.4593 66.0777 40.0307 65.8224 39.7191C65.5661 39.4104 65.2013 39.2571 64.7269 39.2571C64.2424 39.2571 63.8082 39.4389 63.4243 39.8046C63.0423 40.1713 62.7438 40.6677 62.5328 41.2948C62.3183 41.9424 62.2114 42.6195 62.2162 43.3001C62.2162 43.8703 62.3448 44.3048 62.6031 44.6075C62.8614 44.9083 63.2434 45.0597 63.7489 45.0597C64.2183 45.0597 64.6414 44.8857 65.0153 44.5387C65.3912 44.1898 65.6837 43.7032 65.8917 43.0741C66.0998 42.4479 66.2033 41.7568 66.2033 41.0058L66.2043 41.0068ZM66.6615 49.9977C66.9701 50.1156 67.358 50.1746 67.8274 50.1746L67.8264 50.1727C68.5923 50.1727 69.2134 49.9446 69.6878 49.4895C70.1622 49.0334 70.5039 48.3217 70.713 47.3544L72.4568 39.2693H74.2479L74.5373 37.9029H72.7463L72.887 37.2443C73.0005 36.741 73.1674 36.3812 73.3825 36.161C73.5996 35.9408 73.888 35.8298 74.2468 35.8298C74.6124 35.8382 74.9734 35.9114 75.3122 36.046L75.7886 34.6944C75.2881 34.4732 74.7383 34.3651 74.1383 34.3651C73.2729 34.3651 72.6035 34.5794 72.1332 35.007C71.6618 35.4346 71.312 36.1551 71.0809 37.1676L70.918 37.8754L69.4004 38.4593L69.2355 39.2722H70.6366L68.938 47.1195C68.7139 48.1673 68.2526 48.6923 67.554 48.6923C67.2927 48.6923 66.9962 48.6412 66.6615 48.5389V49.9977ZM90.621 49.4352H83.6859V33.8812H89.8501C90.9225 33.8812 91.8482 34.009 92.6271 34.2597C93.404 34.5123 93.989 34.8534 94.383 35.284C95.0926 36.0851 95.4484 36.9895 95.4484 37.9971C95.4484 39.216 95.0463 40.1203 94.2463 40.7131C93.9749 40.9195 93.786 41.0502 93.6804 41.1023C93.5749 41.1544 93.3859 41.24 93.1136 41.3579C94.0965 41.5663 94.8785 41.9998 95.4604 42.6604C96.0414 43.319 96.3328 44.1398 96.3328 45.1179C96.3328 46.2021 95.9549 47.1586 95.1991 47.9882C94.3227 48.9535 92.797 49.4352 90.621 49.4352ZM87.2219 40.1794H87.2209L87.2219 40.1804V40.1794ZM87.2219 40.1794H88.8994C89.8803 40.1794 90.608 40.0752 91.0854 39.8678C91.5608 39.6614 91.799 39.2112 91.799 38.5211C91.799 37.833 91.5799 37.3749 91.1417 37.1528C90.7045 36.9306 89.9638 36.8186 88.9205 36.8186H87.2219V40.1794ZM87.2209 46.4982H89.6461C90.6583 46.4982 91.4181 46.3763 91.9237 46.1316C92.4292 45.8858 92.6825 45.4041 92.6825 44.6836C92.6825 43.966 92.4141 43.4902 91.8784 43.2602C91.3407 43.0292 90.4834 42.9142 89.3054 42.9142H87.2209V46.4962V46.4982ZM106.624 49.5915C108.966 49.5915 110.938 48.8238 112.539 47.2883V47.2874C114.141 45.7519 114.941 43.8419 114.941 41.5584C114.941 39.273 114.141 37.363 112.539 35.8276C110.937 34.2912 108.965 33.5244 106.623 33.5244C104.28 33.5244 102.308 34.2921 100.706 35.8276C99.1049 37.363 98.3039 39.273 98.3039 41.5565C98.3039 43.8419 99.1049 45.7519 100.708 47.2874C102.309 48.8228 104.282 49.5915 106.624 49.5915ZM111.338 41.5695C111.338 40.1834 110.886 38.9999 109.978 38.0208C109.07 37.0418 107.956 36.5522 106.634 36.5522C105.312 36.5522 104.198 37.0418 103.291 38.0208C102.384 38.9999 101.93 40.1834 101.93 41.5695C101.93 42.9575 102.383 44.1351 103.291 45.1083C104.198 46.0795 105.311 46.5651 106.634 46.5651C107.956 46.5651 109.07 46.0795 109.978 45.1083C110.885 44.1351 111.338 42.9575 111.338 41.5695ZM120.991 38.0767C120.991 37.6245 121.159 37.2608 121.501 36.9855L121.498 36.9836C121.837 36.7093 122.302 36.5737 122.892 36.5737C124.358 36.5737 125.777 37.0848 127.154 38.1071L128.943 35.571C128.159 34.9183 127.236 34.413 126.179 34.0592C125.12 33.7014 124.063 33.5244 123.005 33.5244C121.389 33.5244 120.04 33.9255 118.959 34.7266C117.879 35.5268 117.339 36.6671 117.339 38.1416C117.339 39.618 117.765 40.7023 118.62 41.3904C119.473 42.0804 120.821 42.6407 122.666 43.0693C123.83 43.3524 124.609 43.6296 125.001 43.9049C125.394 44.1801 125.592 44.5507 125.592 45.0176C125.592 45.4845 125.406 45.8561 125.036 46.1313C124.665 46.4046 124.156 46.5422 123.506 46.5422C122.055 46.5422 120.477 45.8089 118.768 44.3403L116.661 46.8765C118.67 48.6999 120.929 49.6141 123.438 49.6141C125.176 49.6141 126.578 49.1796 127.643 48.3116C128.709 47.4446 129.241 46.3142 129.241 44.9183C129.241 43.5254 128.825 42.4638 127.995 41.7364C127.164 41.0099 125.997 40.4644 124.493 40.1007C122.989 39.7379 122.03 39.4224 121.614 39.155C121.199 38.8886 120.991 38.5289 120.991 38.0767ZM139.05 36.8853V49.4352H135.512V36.8853H131.026V33.8812H143.539V36.8853H139.05ZM153.121 49.5915C155.463 49.5915 157.435 48.8238 159.037 47.2883V47.2874C160.639 45.7519 161.439 43.8419 161.439 41.5584C161.439 39.273 160.639 37.363 159.037 35.8276C157.435 34.2912 155.463 33.5244 153.121 33.5244C150.779 33.5244 148.807 34.2921 147.205 35.8276C145.603 37.363 144.803 39.273 144.803 41.5565C144.803 43.8419 145.603 45.7519 147.205 47.2874C148.807 48.8228 150.78 49.5915 153.121 49.5915ZM157.836 41.5695C157.836 40.1834 157.381 38.9999 156.475 38.0208C155.568 37.0418 154.453 36.5522 153.131 36.5522C151.808 36.5522 150.694 37.0418 149.787 38.0208C148.88 38.9999 148.426 40.1834 148.426 41.5695C148.426 42.9575 148.878 44.1351 149.786 45.1083C150.693 46.0795 151.806 46.5651 153.129 46.5651C154.45 46.5651 155.565 46.0795 156.472 45.1083C157.378 44.1351 157.832 42.9575 157.832 41.5695H157.836ZM179.1 33.8812H175.564H175.563V43.895L167.787 33.8812H164.48V49.4352H168.016V39.6898L175.564 49.4352H179.1V33.8812Z" fill="#8F908F"/>
<path d="M83.6992 53.3252H179.999V56.4752H83.6992V53.3252Z" fill="#CFCFCF"/>
</svg>
