<svg width="181" height="90" viewBox="0 0 181 90" fill="none" xmlns="http://www.w3.org/2000/svg">
<path d="M86.3008 59.1581V31.9111H93.319V59.1581H86.3008Z" fill="#8F908F"/>
<path d="M96.832 45.5496C96.832 37.1329 103.206 31.4578 111.579 31.4578C114.057 31.3612 116.507 31.9997 118.622 33.2927C120.737 34.5857 122.423 36.4755 123.466 38.7243L117.426 41.626C116.93 40.4777 116.116 39.4952 115.08 38.7943C114.045 38.0934 112.83 37.7035 111.579 37.6705C110.555 37.6592 109.538 37.8574 108.592 38.2529C107.647 38.6485 106.792 39.2331 106.08 39.9709C105.369 40.7087 104.816 41.5841 104.454 42.5434C104.093 43.5027 103.932 44.5257 103.98 45.5496C103.931 46.5743 104.091 47.5984 104.451 48.5589C104.812 49.5194 105.365 50.3961 106.077 51.135C106.788 51.8739 107.644 52.4595 108.59 52.8557C109.536 53.2519 110.554 53.4503 111.579 53.4389C112.831 53.4037 114.046 53.0116 115.082 52.3088C116.117 51.6061 116.931 50.6219 117.426 49.4722L123.467 52.3318C122.414 54.5764 120.728 56.4642 118.616 57.7627C116.504 59.0613 114.058 59.7139 111.579 59.6404C103.184 59.6404 96.832 53.9222 96.832 45.5496Z" fill="#8F908F"/>
<path d="M141.437 49.1079H134.537L138.008 38.8545L141.437 49.1079ZM152.626 59.1581L142.426 31.9111H133.558L123.305 59.1581H131.269L132.613 55.2345H143.361L144.704 59.1581H152.626Z" fill="#8F908F"/>
<path d="M173.221 59.1581L161.699 43.3897V59.1581H154.68V31.9111H161.903L172.941 46.9583V31.9111H180.003V59.1581H173.221Z" fill="#8F908F"/>
<path d="M64.3493 53.7618C69.6273 65.0155 71.3254 74.8924 69.4549 75.9677C69.2513 76.0811 69.022 76.1404 68.789 76.14C65.9191 76.14 59.9855 68.9597 54.5576 58.9433L64.3493 53.7618ZM40.4461 55.5788L30.2658 65.7236C33.2715 67.9202 36.7634 69.3585 40.4443 69.916L40.4461 55.5788ZM20.9162 50.343C21.4892 54.1251 22.9883 57.7069 25.28 60.7697L35.7489 50.344L20.9162 50.343ZM47.5075 69.9704C50.9839 69.4386 54.2925 68.1186 57.1802 66.1114C58.4413 68.0906 59.8044 70.003 61.264 71.8409C56.7143 75.0093 51.3824 76.8686 45.8491 77.2162C40.3157 77.5639 34.7931 76.3867 29.8826 73.8127C24.972 71.2387 20.8619 67.3667 17.9998 62.6183C15.1377 57.8699 13.6334 52.4273 13.6506 46.8831V45.657L20.948 43.3781H42.7774L57.9436 28.2766C53.8883 25.2157 48.9408 23.5696 43.86 23.591C38.7792 23.6123 33.8457 25.2998 29.8162 28.3947L28.311 20.9352C40.3543 13.6425 55.8361 15.6132 65.6681 25.6915C75.5 35.7698 77.0876 51.2965 69.498 63.1563C68.521 60.1165 67.3727 57.1344 66.0586 54.2245C67.2181 50.7267 67.5304 47.0036 66.9698 43.3615C66.4091 39.7195 64.9916 36.2626 62.8338 33.2755L47.4429 48.6674V69.916L47.5075 69.9704ZM48.8291 49.2687L54.2036 43.8952C55.5773 44.8955 56.8941 45.9718 58.1478 47.1191C58.1478 47.1191 53.7409 55.503 52.3331 57.5449C51.1329 57.1936 49.9586 56.7592 48.8188 56.2448L48.8291 49.2687ZM28.4833 28.8911C22.4326 26.3649 17.0469 24.5806 14.6613 24.2153L14.2201 12.7246L26.7955 20.4744L28.4824 28.848L28.4833 28.8911ZM20.9808 41.9498L12.566 44.5293L0 38.2734L10.0174 32.4906C13.3468 36.018 17.0353 39.1882 21.023 41.9498H20.9808ZM12.4255 33.0498L11.8242 32.4475C11.4804 32.0391 11.103 31.6308 10.7489 31.2111L13.9307 25.6231H14.4899L14.8552 25.7084H15.1024L15.4996 25.8058L15.8115 25.8807L16.2517 25.9987L16.617 26.0952L17.1125 26.2357L17.5424 26.364L18.5521 26.6872C18.7207 26.7312 18.8855 26.7846 19.0466 26.8483L19.6592 27.0524L20.0357 27.1808C22.3464 27.9657 25.1404 29.0194 28.1724 30.2661L29.7197 30.9105L30.203 31.1147C35.4626 33.3332 40.607 35.8156 45.6164 38.5525L42.1977 41.9601H23.4217L22.1638 41.0684C19.7135 39.3168 17.3804 37.5101 15.3066 35.6939C14.9947 35.4251 14.6941 35.1675 14.4037 34.8978L13.9092 34.436C13.63 34.1887 13.3069 33.8778 13.0924 33.6736C12.877 33.4694 12.6728 33.2643 12.4686 33.0498H12.4255Z" fill="#8F908F"/>
</svg>
